<svg viewBox="0 0 200 200" class="w-full h-full text-indigo-400" preserveAspectRatio="xMidYMid meet">
  <defs>
    <linearGradient id="dataVizGradient" x1="0%" y1="0%" x2="100%" y2="100%">
      <stop offset="0%" style="stop-color:#818cf8;stop-opacity:1" />
      <stop offset="100%" style="stop-color:#6366f1;stop-opacity:1" />
    </linearGradient>
  </defs>
  <!-- Chart representation -->
  <!-- Bar chart bars -->
  <rect x="60" y="120" width="20" height="30" rx="2" fill="url(#dataVizGradient)" opacity="0.6"/>
  <rect x="90" y="100" width="20" height="50" rx="2" fill="url(#dataVizGradient)" opacity="0.7"/>
  <rect x="120" y="110" width="20" height="40" rx="2" fill="url(#dataVizGradient)" opacity="0.6"/>
  <!-- Line chart -->
  <path d="M 50 80 Q 70 70, 90 75 T 130 70" stroke="url(#dataVizGradient)" stroke-width="3" fill="none" opacity="0.6"/>
  <circle cx="50" cy="80" r="4" fill="url(#dataVizGradient)" opacity="0.7"/>
  <circle cx="90" cy="75" r="4" fill="url(#dataVizGradient)" opacity="0.7"/>
  <circle cx="130" cy="70" r="4" fill="url(#dataVizGradient)" opacity="0.7"/>
  <!-- Pie chart segment -->
  <path d="M 100 50 L 100 50 A 25 25 0 0 1 120 65 Z" fill="url(#dataVizGradient)" opacity="0.5"/>
  <path d="M 100 50 L 120 65 A 25 25 0 0 1 100 75 Z" fill="url(#dataVizGradient)" opacity="0.6"/>
  <path d="M 100 50 L 100 75 A 25 25 0 0 1 80 65 Z" fill="url(#dataVizGradient)" opacity="0.4"/>
  <!-- Data points -->
  <circle cx="60" cy="120" r="3" fill="white" opacity="0.8"/>
  <circle cx="100" cy="100" r="3" fill="white" opacity="0.8"/>
  <circle cx="130" cy="110" r="3" fill="white" opacity="0.8"/>
</svg>

